<svg xmlns="http://www.w3.org/2000/svg" viewBox="0 0 600 350" fill="none">
  <defs>
    <linearGradient id="aGrad" x1="0" y1="0" x2="1" y2="1"><stop offset="0%" stop-color="#6CA644" stop-opacity="0.15"/><stop offset="100%" stop-color="#14b8a6" stop-opacity="0.1"/></linearGradient>
    <linearGradient id="aLeaf" x1="0" y1="0" x2="1" y2="1"><stop offset="0%" stop-color="#6CA644"/><stop offset="100%" stop-color="#0D3E2D"/></linearGradient>
  </defs>

  <rect width="600" height="350" fill="#f0fdf4"/>
  <circle cx="300" cy="175" r="160" fill="url(#aGrad)"/>

  <!-- Network/connection lines -->
  <g stroke="#6CA644" stroke-width="1" opacity="0.2" fill="none">
    <line x1="120" y1="150" x2="250" y2="130"/>
    <line x1="250" y1="130" x2="350" y2="120"/>
    <line x1="350" y1="120" x2="480" y2="140"/>
    <line x1="120" y1="150" x2="200" y2="220"/>
    <line x1="200" y1="220" x2="350" y2="240"/>
    <line x1="350" y1="240" x2="480" y2="200"/>
    <line x1="250" y1="130" x2="200" y2="220"/>
    <line x1="350" y1="120" x2="350" y2="240"/>
    <line x1="480" y1="140" x2="480" y2="200"/>
  </g>

  <!-- Node dots on connections -->
  <g fill="#6CA644" opacity="0.3">
    <circle cx="185" cy="140" r="3"/>
    <circle cx="300" cy="125" r="3"/>
    <circle cx="415" cy="130" r="3"/>
    <circle cx="160" cy="185" r="3"/>
    <circle cx="275" cy="185" r="3"/>
    <circle cx="415" cy="170" r="3"/>
    <circle cx="275" cy="235" r="3"/>
  </g>

  <!-- Kid group 1 (left - Sumatra) -->
  <g transform="translate(80,110)">
    <circle cx="35" cy="25" r="20" fill="#f5d0a9"/>
    <path d="M18 18 Q22 5 35 2 Q48 5 52 18 Q50 10 35 8 Q20 10 18 18Z" fill="#2c1810"/>
    <circle cx="28" cy="24" r="2.5" fill="#1a1a1a"/>
    <circle cx="42" cy="24" r="2.5" fill="#1a1a1a"/>
    <path d="M27 32 Q35 38 43 32" stroke="#1a1a1a" stroke-width="1.5" fill="none" stroke-linecap="round"/>
    <rect x="15" y="45" width="40" height="45" rx="10" fill="#0D3E2D"/>
    <circle cx="35" cy="25" r="22" fill="none" stroke="#6CA644" stroke-width="1" stroke-dasharray="4,4" opacity="0.4"/>
  </g>

  <!-- Kid group 2 (center-left - Java) -->
  <g transform="translate(200,90)">
    <circle cx="30" cy="22" r="18" fill="#c68642"/>
    <path d="M14 15 Q20 2 30 0 Q40 2 46 15 Q43 8 30 6 Q17 8 14 15Z" fill="#1a0f05"/>
    <circle cx="23" cy="20" r="2.5" fill="#1a1a1a"/>
    <circle cx="37" cy="20" r="2.5" fill="#1a1a1a"/>
    <path d="M22 28 Q30 34 38 28" stroke="#1a1a1a" stroke-width="1.5" fill="none" stroke-linecap="round"/>
    <rect x="12" y="40" width="36" height="42" rx="9" fill="#14b8a6"/>
    <circle cx="30" cy="22" r="20" fill="none" stroke="#14b8a6" stroke-width="1" stroke-dasharray="4,4" opacity="0.4"/>
  </g>

  <!-- Kid group 3 (center - Kalimantan) -->
  <g transform="translate(305,80)">
    <circle cx="30" cy="22" r="18" fill="#d4a76a"/>
    <path d="M14 15 Q20 -2 30 -5 Q40 -2 46 15 Q46 30 40 42 L20 42 Q14 30 14 15Z" fill="#6366f1" opacity="0.8"/>
    <path d="M17 16 Q22 6 30 4 Q38 6 43 16 Q40 22 30 20 Q20 22 17 16Z" fill="#d4a76a"/>
    <circle cx="23" cy="20" r="2.5" fill="#1a1a1a"/>
    <circle cx="37" cy="20" r="2.5" fill="#1a1a1a"/>
    <path d="M22 28 Q30 34 38 28" stroke="#1a1a1a" stroke-width="1.5" fill="none" stroke-linecap="round"/>
    <rect x="12" y="40" width="36" height="42" rx="9" fill="#6CA644"/>
    <circle cx="30" cy="22" r="20" fill="none" stroke="#6CA644" stroke-width="1" stroke-dasharray="4,4" opacity="0.4"/>
  </g>

  <!-- Kid group 4 (right - Papua) -->
  <g transform="translate(440,100)">
    <circle cx="30" cy="22" r="18" fill="#8B6914" opacity="0.8"/>
    <path d="M14 15 Q20 2 30 0 Q40 2 46 15 Q43 8 30 6 Q17 8 14 15Z" fill="#1a0a00"/>
    <circle cx="23" cy="20" r="2.5" fill="#1a1a1a"/>
    <circle cx="37" cy="20" r="2.5" fill="#1a1a1a"/>
    <path d="M22 28 Q30 34 38 28" stroke="#1a1a1a" stroke-width="1.5" fill="none" stroke-linecap="round"/>
    <rect x="12" y="40" width="36" height="42" rx="9" fill="#0D3E2D"/>
    <circle cx="30" cy="22" r="20" fill="none" stroke="#0D3E2D" stroke-width="1" stroke-dasharray="4,4" opacity="0.4"/>
  </g>

  <!-- Kid group 5 (bottom-left - Sulawesi) -->
  <g transform="translate(155,195)">
    <circle cx="30" cy="22" r="18" fill="#f5d0a9"/>
    <path d="M14 15 Q20 2 30 0 Q40 2 46 15 Q43 8 30 6 Q17 8 14 15Z" fill="#3d2814"/>
    <circle cx="23" cy="20" r="2.5" fill="#1a1a1a"/>
    <circle cx="37" cy="20" r="2.5" fill="#1a1a1a"/>
    <path d="M22 28 Q30 34 38 28" stroke="#1a1a1a" stroke-width="1.5" fill="none" stroke-linecap="round"/>
    <rect x="12" y="40" width="36" height="42" rx="9" fill="#6366f1"/>
  </g>

  <!-- Kid group 6 (bottom-center - Bali) -->
  <g transform="translate(310,210)">
    <circle cx="30" cy="22" r="18" fill="#d4a76a"/>
    <path d="M14 15 Q20 2 30 0 Q40 2 46 15 Q43 8 30 6 Q17 8 14 15Z" fill="#2c1810"/>
    <circle cx="23" cy="20" r="2.5" fill="#1a1a1a"/>
    <circle cx="37" cy="20" r="2.5" fill="#1a1a1a"/>
    <path d="M22 28 Q30 34 38 28" stroke="#1a1a1a" stroke-width="1.5" fill="none" stroke-linecap="round"/>
    <rect x="12" y="40" width="36" height="42" rx="9" fill="#14b8a6"/>
  </g>

  <!-- Kid group 7 (bottom-right - NTT) -->
  <g transform="translate(440,175)">
    <circle cx="30" cy="22" r="18" fill="#c68642"/>
    <path d="M14 15 Q20 2 30 0 Q40 2 46 15 Q43 8 30 6 Q17 8 14 15Z" fill="#1a0f05"/>
    <circle cx="23" cy="20" r="2.5" fill="#1a1a1a"/>
    <circle cx="37" cy="20" r="2.5" fill="#1a1a1a"/>
    <path d="M22 28 Q30 34 38 28" stroke="#1a1a1a" stroke-width="1.5" fill="none" stroke-linecap="round"/>
    <rect x="12" y="40" width="36" height="42" rx="9" fill="#6CA644"/>
  </g>

  <!-- Central emblem -->
  <g transform="translate(270,155)">
    <circle cx="30" cy="25" r="28" fill="#6CA644" opacity="0.1"/>
    <circle cx="30" cy="25" r="20" fill="#6CA644" opacity="0.15"/>
    <!-- Plant/sprout icon -->
    <path d="M30 40 L30 20" stroke="#6CA644" stroke-width="3" stroke-linecap="round"/>
    <ellipse cx="22" cy="20" rx="10" ry="7" fill="url(#aLeaf)" opacity="0.7" transform="rotate(-20,22,20)"/>
    <ellipse cx="38" cy="15" rx="9" ry="6" fill="#6CA644" opacity="0.6" transform="rotate(15,38,15)"/>
  </g>

  <!-- Decorative plants bottom -->
  <g transform="translate(50,300)" opacity="0.4">
    <rect x="3" y="5" width="2" height="15" rx="1" fill="#4a8c2a"/>
    <ellipse cx="4" cy="3" rx="6" ry="8" fill="#6CA644"/>
  </g>
  <g transform="translate(540,295)" opacity="0.4">
    <rect x="3" y="5" width="2" height="15" rx="1" fill="#4a8c2a"/>
    <ellipse cx="4" cy="3" rx="6" ry="8" fill="#81c784"/>
  </g>

  <!-- Region labels (subtle) -->
  <g font-family="sans-serif" font-size="8" fill="#6CA644" opacity="0.35" text-anchor="middle" font-weight="bold">
    <text x="115" y="180">Sumatra</text>
    <text x="230" y="90">Jawa</text>
    <text x="335" y="78">Kalimantan</text>
    <text x="470" y="96">Papua</text>
    <text x="185" y="260">Sulawesi</text>
    <text x="340" y="275">Bali</text>
    <text x="470" y="240">NTT</text>
  </g>
</svg>