<svg xmlns="http://www.w3.org/2000/svg" viewBox="0 0 400 300" fill="none">
  <defs>
    <linearGradient id="hSkin" x1="0" y1="0" x2="0" y2="1"><stop offset="0%" stop-color="#d4a76a"/><stop offset="100%" stop-color="#b8894e"/></linearGradient>
  </defs>

  <rect width="400" height="300" fill="#f0fdf4"/>
  <circle cx="200" cy="150" r="110" fill="#6CA644" opacity="0.04"/>

  <!-- Timeline -->
  <g transform="translate(80,40)">
    <line x1="15" y1="20" x2="15" y2="220" stroke="#6CA644" stroke-width="2" opacity="0.2"/>
    <!-- Timeline dots -->
    <circle cx="15" cy="30" r="6" fill="#6CA644" opacity="0.3"/>
    <circle cx="15" cy="30" r="3" fill="#6CA644"/>
    <circle cx="15" cy="80" r="6" fill="#14b8a6" opacity="0.3"/>
    <circle cx="15" cy="80" r="3" fill="#14b8a6"/>
    <circle cx="15" cy="130" r="6" fill="#6CA644" opacity="0.3"/>
    <circle cx="15" cy="130" r="3" fill="#6CA644"/>
    <circle cx="15" cy="180" r="6" fill="#14b8a6" opacity="0.3"/>
    <circle cx="15" cy="180" r="3" fill="#14b8a6"/>

    <!-- Activity cards -->
    <g transform="translate(30,15)">
      <rect x="0" y="0" width="180" height="35" rx="8" fill="white" stroke="#6CA644" stroke-width="0.8" opacity="0.7"/>
      <rect x="8" y="8" width="50" height="5" rx="2" fill="#6CA644" opacity="0.3"/>
      <rect x="8" y="18" width="80" height="4" rx="2" fill="#6CA644" opacity="0.15"/>
      <rect x="140" y="10" width="30" height="14" rx="5" fill="#6CA644" opacity="0.1"/>
      <text x="155" y="21" font-family="sans-serif" font-size="7" fill="#6CA644" text-anchor="middle" font-weight="bold">WIN</text>
    </g>
    <g transform="translate(30,65)">
      <rect x="0" y="0" width="180" height="35" rx="8" fill="white" stroke="#14b8a6" stroke-width="0.8" opacity="0.7"/>
      <rect x="8" y="8" width="60" height="5" rx="2" fill="#14b8a6" opacity="0.3"/>
      <rect x="8" y="18" width="90" height="4" rx="2" fill="#14b8a6" opacity="0.15"/>
      <rect x="140" y="10" width="30" height="14" rx="5" fill="#14b8a6" opacity="0.1"/>
      <text x="155" y="21" font-family="sans-serif" font-size="7" fill="#14b8a6" text-anchor="middle" font-weight="bold">WIN</text>
    </g>
    <g transform="translate(30,115)">
      <rect x="0" y="0" width="180" height="35" rx="8" fill="white" stroke="#6CA644" stroke-width="0.8" opacity="0.7"/>
      <rect x="8" y="8" width="45" height="5" rx="2" fill="#6CA644" opacity="0.3"/>
      <rect x="8" y="18" width="75" height="4" rx="2" fill="#6CA644" opacity="0.15"/>
      <rect x="140" y="10" width="30" height="14" rx="5" fill="#6CA644" opacity="0.1"/>
      <text x="155" y="21" font-family="sans-serif" font-size="7" fill="#6CA644" text-anchor="middle" font-weight="bold">WIN</text>
    </g>
    <g transform="translate(30,165)">
      <rect x="0" y="0" width="180" height="35" rx="8" fill="white" stroke="#a78bfa" stroke-width="0.8" opacity="0.7"/>
      <rect x="8" y="8" width="55" height="5" rx="2" fill="#a78bfa" opacity="0.3"/>
      <rect x="8" y="18" width="85" height="4" rx="2" fill="#a78bfa" opacity="0.15"/>
      <rect x="140" y="10" width="30" height="14" rx="5" fill="#a78bfa" opacity="0.1"/>
      <text x="155" y="21" font-family="sans-serif" font-size="7" fill="#a78bfa" text-anchor="middle" font-weight="bold">LOSS</text>
    </g>
  </g>

  <!-- Kid with clipboard -->
  <g transform="translate(310,100)">
    <rect x="10" y="45" width="38" height="50" rx="8" fill="#0D3E2D"/>
    <circle cx="29" cy="25" r="20" fill="url(#hSkin)"/>
    <path d="M12 18 Q17 5 29 2 Q41 5 46 18 Q43 10 29 8 Q15 10 12 18Z" fill="#1a0f05"/>
    <circle cx="22" cy="23" r="2.5" fill="#1a1a1a"/>
    <circle cx="36" cy="23" r="2.5" fill="#1a1a1a"/>
    <circle cx="23.3" cy="22" r="1" fill="white"/>
    <circle cx="37.3" cy="22" r="1" fill="white"/>
    <path d="M21 32 Q29 38 37 32" stroke="#1a1a1a" stroke-width="1.5" fill="none" stroke-linecap="round"/>
    <!-- Clipboard -->
    <rect x="-8" y="55" width="22" height="28" rx="4" fill="white" stroke="#6CA644" stroke-width="1" transform="rotate(-10,-8,55)"/>
    <rect x="-3" y="60" width="12" height="3" rx="1" fill="#6CA644" opacity="0.3" transform="rotate(-10,-3,60)"/>
    <rect x="-2" y="66" width="10" height="2" rx="1" fill="#6CA644" opacity="0.2" transform="rotate(-10,-2,66)"/>
    <rect x="15" y="90" width="10" height="22" rx="4" fill="#1e3a5f"/>
    <rect x="33" y="90" width="10" height="22" rx="4" fill="#1e3a5f"/>
  </g>

  <!-- Stats -->
  <g transform="translate(60,270)" opacity="0.5">
    <rect x="0" y="0" width="75" height="24" rx="8" fill="#6CA644" opacity="0.12"/>
    <text x="37" y="16" font-family="sans-serif" font-size="8" fill="#6CA644" text-anchor="middle" font-weight="bold">18 Pertandingan</text>
  </g>
  <g transform="translate(150,270)" opacity="0.5">
    <rect x="0" y="0" width="65" height="24" rx="8" fill="#14b8a6" opacity="0.12"/>
    <text x="32" y="16" font-family="sans-serif" font-size="8" fill="#14b8a6" text-anchor="middle" font-weight="bold">72% Win</text>
  </g>
</svg>