<svg xmlns="http://www.w3.org/2000/svg" viewBox="0 0 300 400" fill="none">
  <defs>
    <linearGradient id="s1" x1="0" y1="0" x2="0" y2="1"><stop offset="0%" stop-color="#f5d0a9"/><stop offset="100%" stop-color="#e8b888"/></linearGradient>
    <linearGradient id="s2" x1="0" y1="0" x2="0" y2="1"><stop offset="0%" stop-color="#c68642"/><stop offset="100%" stop-color="#a0652f"/></linearGradient>
    <linearGradient id="s3" x1="0" y1="0" x2="0" y2="1"><stop offset="0%" stop-color="#d4a76a"/><stop offset="100%" stop-color="#b8894e"/></linearGradient>
  </defs>

  <circle cx="150" cy="200" r="130" fill="#6CA644" opacity="0.06"/>
  <circle cx="150" cy="200" r="90" fill="#14b8a6" opacity="0.05"/>

  <!-- Ground -->
  <ellipse cx="150" cy="350" rx="140" ry="18" fill="#6CA644" opacity="0.12"/>

  <!-- Kid 1 (left) -->
  <g transform="translate(30,160)">
    <rect x="12" y="55" width="42" height="60" rx="10" fill="#0D3E2D"/>
    <circle cx="33" cy="32" r="24" fill="url(#s1)"/>
    <path d="M12 22 Q18 3 33 0 Q48 3 54 22 Q52 12 33 10 Q14 12 12 22Z" fill="#2c1810"/>
    <circle cx="24" cy="30" r="3" fill="#1a1a1a"/>
    <circle cx="42" cy="30" r="3" fill="#1a1a1a"/>
    <circle cx="25.2" cy="29" r="1.2" fill="white"/>
    <circle cx="43.2" cy="29" r="1.2" fill="white"/>
    <path d="M23 40 Q33 48 43 40" stroke="#1a1a1a" stroke-width="2" fill="none" stroke-linecap="round"/>
    <!-- Arms reaching out -->
    <rect x="50" y="65" width="25" height="10" rx="5" fill="url(#s1)" transform="rotate(-20,50,65)"/>
    <rect x="-10" y="68" width="25" height="10" rx="5" fill="url(#s1)" transform="rotate(15,-10,68)"/>
    <rect x="18" y="110" width="12" height="28" rx="5" fill="#1e3a5f"/>
    <rect x="38" y="110" width="12" height="28" rx="5" fill="#1e3a5f"/>
  </g>

  <!-- Kid 2 (center) -->
  <g transform="translate(110,140)">
    <rect x="15" y="60" width="48" height="65" rx="12" fill="#14b8a6"/>
    <circle cx="39" cy="35" r="26" fill="url(#s2)"/>
    <path d="M15 22 Q22 0 39 -3 Q56 0 63 22 Q60 10 39 8 Q18 10 15 22Z" fill="#1a0f05"/>
    <circle cx="29" cy="33" r="3.5" fill="#1a1a1a"/>
    <circle cx="49" cy="33" r="3.5" fill="#1a1a1a"/>
    <circle cx="30.5" cy="31.5" r="1.3" fill="white"/>
    <circle cx="50.5" cy="31.5" r="1.3" fill="white"/>
    <path d="M28 45 Q39 55 50 45" stroke="#1a1a1a" stroke-width="2.5" fill="none" stroke-linecap="round"/>
    <path d="M32 47 L46 47" stroke="white" stroke-width="3.5" stroke-linecap="round"/>
    <!-- Arms up! celebrating -->
    <rect x="-12" y="50" width="30" height="10" rx="5" fill="url(#s2)" transform="rotate(-50,-12,50)"/>
    <rect x="60" y="50" width="30" height="10" rx="5" fill="url(#s2)" transform="rotate(50,60,50)"/>
    <rect x="22" y="120" width="13" height="30" rx="6" fill="#1e3a5f"/>
    <rect x="43" y="120" width="13" height="30" rx="6" fill="#1e3a5f"/>
  </g>

  <!-- Kid 3 (right) -->
  <g transform="translate(200,155)">
    <rect x="12" y="55" width="42" height="60" rx="10" fill="#6366f1"/>
    <circle cx="33" cy="32" r="24" fill="url(#s3)"/>
    <!-- Hijab -->
    <path d="M12 22 Q18 2 33 -2 Q48 2 54 22 Q54 38 48 50 L18 50 Q12 38 12 22Z" fill="#14b8a6" opacity="0.85"/>
    <path d="M15 24 Q20 10 33 7 Q46 10 51 24 Q48 32 33 30 Q18 32 15 24Z" fill="url(#s3)"/>
    <circle cx="24" cy="28" r="3" fill="#1a1a1a"/>
    <circle cx="42" cy="28" r="3" fill="#1a1a1a"/>
    <circle cx="25.2" cy="27" r="1.2" fill="white"/>
    <circle cx="43.2" cy="27" r="1.2" fill="white"/>
    <path d="M23 38 Q33 46 43 38" stroke="#1a1a1a" stroke-width="2" fill="none" stroke-linecap="round"/>
    <rect x="-8" y="60" width="24" height="10" rx="5" fill="url(#s3)" transform="rotate(20,-8,60)"/>
    <rect x="50" y="63" width="24" height="10" rx="5" fill="url(#s3)" transform="rotate(-15,50,63)"/>
    <rect x="18" y="110" width="12" height="28" rx="5" fill="#1e3a5f"/>
    <rect x="38" y="110" width="12" height="28" rx="5" fill="#1e3a5f"/>
  </g>

  <!-- Connection lines between kids (community) -->
  <g stroke="#6CA644" stroke-width="1.5" stroke-dasharray="5,5" opacity="0.25" fill="none">
    <path d="M80 200 Q150 170 185 200"/>
    <path d="M195 200 Q230 175 265 200"/>
    <path d="M80 200 Q150 260 265 200"/>
  </g>

  <!-- Floating hearts/stars -->
  <g opacity="0.4">
    <path d="M140 100 L142 106 L148 106 L143 110 L145 116 L140 112 L135 116 L137 110 L132 106 L138 106Z" fill="#fbbf24"/>
    <path d="M170 110 L172 115 L177 115 L173 118 L175 123 L170 120 L165 123 L167 118 L162 115 L168 115Z" fill="#6CA644"/>
    <path d="M100 120 L102 125 L107 125 L103 128 L105 133 L100 130 L95 133 L97 128 L92 125 L98 125Z" fill="#14b8a6"/>
    <path d="M210 105 L212 110 L217 110 L213 113 L215 118 L210 115 L205 118 L207 113 L202 110 L208 110Z" fill="#a78bfa"/>
  </g>

  <!-- Confetti pieces -->
  <g opacity="0.35">
    <rect x="60" y="90" width="6" height="10" rx="2" fill="#6CA644" transform="rotate(30,60,90)"/>
    <rect x="240" y="95" width="6" height="10" rx="2" fill="#14b8a6" transform="rotate(-20,240,95)"/>
    <rect x="120" y="80" width="5" height="8" rx="1.5" fill="#fbbf24" transform="rotate(45,120,80)"/>
    <rect x="190" y="85" width="5" height="8" rx="1.5" fill="#a78bfa" transform="rotate(-35,190,85)"/>
    <circle cx="80" cy="115" r="3" fill="#14b8a6"/>
    <circle cx="230" cy="120" r="2.5" fill="#6CA644"/>
  </g>

  <!-- Small plants -->
  <g transform="translate(40,330)" opacity="0.5">
    <rect x="3" y="5" width="2" height="15" rx="1" fill="#4a8c2a"/>
    <ellipse cx="4" cy="3" rx="6" ry="8" fill="#6CA644"/>
  </g>
  <g transform="translate(250,325)" opacity="0.5">
    <rect x="3" y="5" width="2" height="15" rx="1" fill="#4a8c2a"/>
    <ellipse cx="4" cy="3" rx="6" ry="8" fill="#81c784"/>
  </g>

</svg>
