<svg width="220" height="140" viewBox="0 0 220 140" fill="none" xmlns="http://www.w3.org/2000/svg">
  <rect width="220" height="140" rx="24" fill="url(#agro-bg)"/>
  <rect x="52" y="26" width="116" height="40" rx="12" fill="#0D9488"/>
  <rect x="62" y="34" width="32" height="24" rx="8" fill="#CCFBF1"/>
  <rect x="100" y="34" width="32" height="24" rx="8" fill="#5EEAD4"/>
  <rect x="138" y="34" width="20" height="24" rx="8" fill="#99F6E4"/>
  <path d="M46 74H174V110C174 116.627 168.627 122 162 122H58C51.3726 122 46 116.627 46 110V74Z" fill="#134E4A"/>
  <rect x="68" y="84" width="12" height="24" rx="6" fill="#99F6E4"/>
  <rect x="90" y="84" width="12" height="24" rx="6" fill="#99F6E4"/>
  <rect x="150" y="84" width="12" height="24" rx="6" fill="#99F6E4"/>
  <defs>
    <linearGradient id="agro-bg" x1="0" y1="0" x2="1" y2="1">
      <stop offset="0%" stop-color="#ECFDF5"/>
      <stop offset="100%" stop-color="#D1FAE5"/>
    </linearGradient>
  </defs>
</svg>
