<svg width="220" height="140" viewBox="0 0 220 140" fill="none" xmlns="http://www.w3.org/2000/svg">
  <rect width="220" height="140" rx="24" fill="url(#cropm-bg)"/>
  <path d="M0 84C20 72 40 74 60 82C80 90 110 96 140 84C170 72 190 66 220 80V140H0V84Z" fill="#A7F3D0"/>
  <path d="M0 108C26 98 60 102 90 114C120 126 160 126 220 110V140H0V108Z" fill="#34D399"/>
  <rect x="42" y="30" width="32" height="60" rx="16" fill="#FCD34D"/>
  <rect x="86" y="20" width="32" height="70" rx="16" fill="#F97316"/>
  <rect x="130" y="26" width="32" height="64" rx="16" fill="#FACC15"/>
  <rect x="174" y="34" width="24" height="56" rx="12" fill="#FBBF24"/>
  <defs>
    <linearGradient id="cropm-bg" x1="0" y1="0" x2="1" y2="1">
      <stop offset="0%" stop-color="#D1FAE5"/>
      <stop offset="100%" stop-color="#FEEEC3"/>
    </linearGradient>
  </defs>
</svg>
