<svg width="220" height="140" viewBox="0 0 220 140" fill="none" xmlns="http://www.w3.org/2000/svg">
  <rect width="220" height="140" rx="24" fill="url(#env-bg)"/>
  <circle cx="60" cy="48" r="26" fill="#FDE047" opacity="0.8"/>
  <path d="M0 96C30 76 60 70 110 80C160 90 180 80 220 66V140H0V96Z" fill="#4ADE80" opacity="0.8"/>
  <path d="M0 112C30 102 60 104 110 120C160 136 190 132 220 118V140H0V112Z" fill="#15803D" opacity="0.6"/>
  <circle cx="130" cy="58" r="28" fill="#86EFAC"/>
  <path d="M130 32C112 52 112 84 130 104C148 84 148 52 130 32Z" fill="#16A34A"/>
  <path d="M130 44C120 56 120 80 130 92C140 80 140 56 130 44Z" fill="#4ADE80"/>
  <defs>
    <linearGradient id="env-bg" x1="0" y1="0" x2="1" y2="1">
      <stop offset="0%" stop-color="#ECFCCB"/>
      <stop offset="100%" stop-color="#DCFCE7"/>
    </linearGradient>
  </defs>
</svg>
