<svg width="800" height="640" viewBox="0 0 800 640" fill="none" xmlns="http://www.w3.org/2000/svg">
  <defs>
    <linearGradient id="hero-bg" x1="0" y1="0" x2="0" y2="1">
      <stop offset="0%" stop-color="#ECFDF5" />
      <stop offset="100%" stop-color="#FEF3C7" />
    </linearGradient>
    <linearGradient id="field" x1="0" y1="0" x2="1" y2="1">
      <stop offset="0%" stop-color="#10B981" />
      <stop offset="100%" stop-color="#16A34A" />
    </linearGradient>
    <linearGradient id="field-alt" x1="0" y1="0" x2="1" y2="0">
      <stop offset="0%" stop-color="#34D399" />
      <stop offset="100%" stop-color="#F97316" />
    </linearGradient>
    <filter id="shadow" x="-20%" y="-20%" width="140%" height="160%">
      <feGaussianBlur in="SourceAlpha" stdDeviation="12" />
      <feOffset dy="12" />
      <feComponentTransfer>
        <feFuncA type="linear" slope="0.2" />
      </feComponentTransfer>
      <feMerge>
        <feMergeNode />
        <feMergeNode in="SourceGraphic" />
      </feMerge>
    </filter>
  </defs>
  <rect width="800" height="640" rx="48" fill="url(#hero-bg)" />
  <circle cx="640" cy="120" r="60" fill="#FDE68A" opacity="0.8" />
  <g opacity="0.4" fill="#fff">
    <ellipse cx="150" cy="90" rx="90" ry="30" />
    <ellipse cx="230" cy="80" rx="60" ry="25" />
    <ellipse cx="300" cy="95" rx="80" ry="28" />
  </g>
  <path
    d="M0 380C120 320 240 300 400 320C560 340 640 320 800 260V640H0V380Z"
    fill="url(#field)"
  />
  <path
    d="M0 430C160 360 280 360 400 390C520 420 640 400 800 330V640H0V430Z"
    fill="url(#field-alt)"
    opacity="0.7"
  />
  <g filter="url(#shadow)">
    <rect x="140" y="180" width="300" height="220" rx="32" fill="#fff" />
    <rect x="160" y="210" width="110" height="24" rx="12" fill="#DCFCE7" />
    <rect x="280" y="210" width="120" height="24" rx="12" fill="#FFE4CA" />
    <rect x="160" y="250" width="220" height="14" rx="7" fill="#E5E7EB" />
    <rect x="160" y="280" width="260" height="14" rx="7" fill="#E5E7EB" />
    <rect x="160" y="310" width="200" height="14" rx="7" fill="#E5E7EB" />
    <rect x="160" y="350" width="120" height="46" rx="16" fill="#0EA5E9" opacity="0.15" />
    <rect x="290" y="350" width="120" height="46" rx="16" fill="#10B981" opacity="0.15" />
    <circle cx="410" cy="206" r="24" fill="#10B981" opacity="0.2" />
    <circle cx="410" cy="206" r="12" fill="#10B981" />
  </g>
  <g filter="url(#shadow)">
    <rect x="430" y="240" width="220" height="160" rx="28" fill="#fff" />
    <circle cx="470" cy="285" r="30" fill="#DCFCE7" />
    <path d="M470 260C455 275 455 305 470 320C485 305 485 275 470 260Z" fill="#10B981" />
    <path d="M470 272C462 280 462 300 470 308C478 300 478 280 470 272Z" fill="#34D399" />
    <rect x="520" y="264" width="100" height="16" rx="8" fill="#E5E7EB" />
    <rect x="520" y="292" width="140" height="12" rx="6" fill="#E5E7EB" />
    <rect x="520" y="320" width="120" height="12" rx="6" fill="#E5E7EB" />
    <rect x="460" y="348" width="160" height="32" rx="16" fill="#10B981" opacity="0.15" />
  </g>
  <g>
    <rect x="620" y="360" width="32" height="120" rx="16" fill="#166534" />
    <rect x="540" y="380" width="28" height="96" rx="14" fill="#16A34A" />
    <path
      d="M540 380C520 360 520 330 540 310C560 330 560 360 540 380Z"
      fill="#A7F3D0"
    />
    <path
      d="M620 360C600 330 600 300 620 272C640 300 640 330 620 360Z"
      fill="#BBF7D0"
    />
  </g>
  <path
    d="M0 520C120 500 280 520 400 560C520 600 680 620 800 600V640H0V520Z"
    fill="#047857"
    opacity="0.35"
  />
</svg>
