<svg width="720" height="520" viewBox="0 0 720 520" fill="none" xmlns="http://www.w3.org/2000/svg">
  <defs>
    <linearGradient id="lab-bg" x1="0" y1="0" x2="1" y2="1">
      <stop offset="0%" stop-color="#F0FDF4" />
      <stop offset="100%" stop-color="#FEF9C3" />
    </linearGradient>
    <linearGradient id="lab-panel" x1="0" y1="0" x2="1" y2="1">
      <stop offset="0%" stop-color="#FFFFFF" />
      <stop offset="100%" stop-color="#F8FAFC" />
    </linearGradient>
    <filter id="lab-shadow" x="-10%" y="-10%" width="120%" height="140%">
      <feGaussianBlur stdDeviation="10" result="blur" />
      <feOffset dy="10" />
      <feComponentTransfer>
        <feFuncA type="linear" slope="0.18" />
      </feComponentTransfer>
      <feMerge>
        <feMergeNode />
        <feMergeNode in="SourceGraphic" />
      </feMerge>
    </filter>
  </defs>

  <rect width="720" height="520" rx="40" fill="url(#lab-bg)" />
  <circle cx="130" cy="120" r="70" fill="#BBF7D0" opacity="0.4" />
  <circle cx="620" cy="100" r="50" fill="#FDE68A" opacity="0.5" />

  <g filter="url(#lab-shadow)">
    <rect x="120" y="120" width="480" height="260" rx="28" fill="url(#lab-panel)" />
    <rect x="150" y="150" width="140" height="24" rx="12" fill="#DCFCE7" />
    <rect x="306" y="150" width="80" height="24" rx="12" fill="#FFEDD5" />
    <rect x="150" y="188" width="360" height="12" rx="6" fill="#E2E8F0" />
    <rect x="150" y="210" width="260" height="12" rx="6" fill="#E2E8F0" />
    <rect x="150" y="232" width="220" height="12" rx="6" fill="#E2E8F0" />
    <rect x="150" y="254" width="140" height="12" rx="6" fill="#E2E8F0" />
    <rect x="320" y="254" width="80" height="12" rx="6" fill="#E2E8F0" />
    <rect x="410" y="254" width="100" height="12" rx="6" fill="#E2E8F0" />
  </g>

  <g filter="url(#lab-shadow)">
    <rect x="190" y="320" width="340" height="130" rx="24" fill="#0F172A" />
    <rect x="210" y="340" width="80" height="70" rx="12" fill="#16A34A" />
    <rect x="300" y="340" width="80" height="90" rx="12" fill="#34D399" />
    <rect x="390" y="340" width="80" height="55" rx="12" fill="#F97316" />
    <rect x="250" y="310" width="220" height="18" rx="9" fill="#1F2937" />
    <rect x="260" y="450" width="100" height="12" rx="6" fill="#1E293B" />
  </g>

  <g filter="url(#lab-shadow)">
    <rect x="470" y="200" width="140" height="140" rx="20" fill="#FFFFFF" />
    <circle cx="540" cy="235" r="32" fill="#DCFCE7" />
    <path
      d="M540 210C524 228 524 252 540 270C556 252 556 228 540 210Z"
      fill="#10B981"
    />
    <path
      d="M540 220C532 230 532 250 540 260C548 250 548 230 540 220Z"
      fill="#34D399"
    />
    <rect x="500" y="290" width="80" height="10" rx="5" fill="#E2E8F0" />
    <rect x="500" y="310" width="110" height="10" rx="5" fill="#E2E8F0" />
  </g>

  <g>
    <path
      d="M120 410C160 380 220 380 260 410C300 440 360 440 400 410C440 380 500 380 540 410C580 440 640 440 680 410V520H40V450C66 440 94 428 120 410Z"
      fill="#059669"
      opacity="0.3"
    />
    <path
      d="M80 460C120 430 180 430 220 460C260 490 320 490 360 460C400 430 460 430 500 460C540 490 600 490 640 460"
      stroke="#10B981"
      stroke-width="8"
      stroke-linecap="round"
      opacity="0.4"
    />
  </g>
</svg>
